<?xml version="1.0" encoding="utf-8"?>
<!-- Generator: Adobe Illustrator 24.2.0, SVG Export Plug-In . SVG Version: 6.00 Build 0)  -->
<svg version="1.1" id="Layer_1" xmlns="http://www.w3.org/2000/svg" xmlns:xlink="http://www.w3.org/1999/xlink" x="0px" y="0px"
	 viewBox="0 0 1050.25 313.34" style="enable-background:new 0 0 1050.25 313.34;" xml:space="preserve">
<style type="text/css">
	.st0{fill-rule:evenodd;clip-rule:evenodd;fill:#FFFFFF;}
</style>
<path class="st0" d="M68.92,0h72.54L72.54,313.31H0L68.92,0L68.92,0L68.92,0z M397.38,99.79l-35.49,161.33
	c-6.35,28.84-34.87,52.22-63.71,52.22h-26.71c3.45-1.3,6.36-4.42,7.16-8.05l45.21-205.5H397.38L397.38,99.79L397.38,99.79z
	 M304.79,99.79l-45.21,205.5c-0.8,3.63,0.74,6.74,3.62,8.05h-25.23c-28.84,0-47.08-23.38-40.73-52.22l35.49-161.33H304.79
	L304.79,99.79L304.79,99.79z M501.37,102.06h25.98c28.84,0,47.08,23.38,40.73,52.22l-23.5,106.83
	c-6.34,28.84-34.86,52.22-63.71,52.22h-26.71c3.45-1.3,6.36-4.42,7.16-8.05l43.01-195.52C505.06,106.43,503.82,103.52,501.37,102.06
	L501.37,102.06L501.37,102.06z M467.13,102.06h24.5c-3.09,1.46-5.61,4.36-6.35,7.71l-43.01,195.52c-0.8,3.63,0.74,6.74,3.62,8.05
	h-25.23c-28.84,0-47.08-23.38-40.73-52.22l23.5-106.83C409.77,125.44,438.29,102.06,467.13,102.06L467.13,102.06L467.13,102.06z
	 M684.06,102.06h25.98c28.84,0,47.08,23.38,40.73,52.22l-34.62,157.36h-73.54l44.41-201.87
	C687.75,106.43,686.5,103.52,684.06,102.06L684.06,102.06L684.06,102.06z M832.51,102.06h24.49c-3.09,1.46-5.61,4.36-6.35,7.71
	l-43.01,195.52c-0.8,3.63,0.74,6.74,3.62,8.05h-25.23c-28.84,0-47.08-23.38-40.73-52.22l23.5-106.83
	C775.14,125.44,803.67,102.06,832.51,102.06L832.51,102.06L832.51,102.06z M153.34,2.28h25.98c28.84,0,47.08,23.38,40.73,52.22
	l-8.21,37.34c-9.32,14.87-24.54,26.32-41.15,30.67c18.33,7.34,28.35,26.52,23.4,49.02l-6.01,27.3l-13.49,62.29
	c-6.34,28.84-34.87,52.22-63.71,52.22H84.18c3.45-1.3,6.36-4.42,7.16-8.05L156.3,9.98C157.04,6.64,155.79,3.73,153.34,2.28
	L153.34,2.28L153.34,2.28z M963.42,104.39h68.41l-45.97,208.95h-68.41L963.42,104.39L963.42,104.39L963.42,104.39z M976.56,38.38
	c0-20.35,16.5-36.84,36.85-36.84c20.35,0,36.84,16.5,36.84,36.84c0,20.35-16.49,36.84-36.84,36.84
	C993.06,75.22,976.56,58.73,976.56,38.38L976.56,38.38L976.56,38.38z M892.75,0h75.79l-68.92,313.31h-75.8L892.75,0L892.75,0
	L892.75,0z M597.75,102.75h73.14l-45.95,208.88H551.8L597.75,102.75L597.75,102.75L597.75,102.75z"/>
</svg>
