<?xml version="1.0" encoding="utf-8"?>
<!-- Generator: Adobe Illustrator 24.2.0, SVG Export Plug-In . SVG Version: 6.00 Build 0)  -->
<svg version="1.1" id="Layer_1" xmlns="http://www.w3.org/2000/svg" xmlns:xlink="http://www.w3.org/1999/xlink" x="0px" y="0px"
	 viewBox="0 0 1080 360" style="enable-background:new 0 0 1080 360;" xml:space="preserve">
<style type="text/css">
	.st0{fill:#FFFFFF;}
</style>
<g>
	<path class="st0" d="M177.51,14.44c-17.21,0-31.14,5.57-31.14,12.4v309.6c0,6.84,13.92,12.41,31.14,12.41s31.14-5.57,31.14-12.41
		V26.84C208.65,20.01,194.73,14.44,177.51,14.44z"/>
	<path class="st0" d="M75.24,11.15c-16.96-2.28-31.39,1.27-32.4,8.1L1.32,326.32c-1.01,6.84,12.15,14.18,29.11,16.45
		s31.39-1.27,32.4-8.1L104.35,27.6C105.36,20.77,92.2,13.42,75.24,11.15z"/>
	<path class="st0" d="M279.79,11.15c-16.96,2.28-29.87,9.62-29.11,16.46l41.52,306.82c1.01,6.83,15.44,10.38,32.4,8.1
		c16.96-2.28,29.87-9.62,29.11-16.45L312.19,19.25C311.43,12.42,296.75,8.87,279.79,11.15z"/>
	<path class="st0" d="M413.2,179.5c0,17.21,5.57,31.13,12.4,31.13h236.45c6.84,0,12.41-13.92,12.41-31.13
		c0-17.22-5.57-31.14-12.66-31.14H425.35C418.77,148.36,413.2,162.28,413.2,179.5z"/>
	<path class="st0" d="M409.9,286.07c-2.28,16.96,1.27,31.39,8.1,32.4l234.17,31.64c6.83,1.01,14.17-12.15,16.45-29.11
		c2.28-16.96-1.27-31.39-8.1-32.4l-234.17-31.64C419.52,256.2,412.18,269.11,409.9,286.07z"/>
	<path class="st0" d="M409.9,72.92c2.28,16.96,9.62,29.87,16.45,29.11l234.17-31.65c6.83-1.01,10.38-15.44,8.1-32.4
		c-2.28-16.96-9.62-29.87-16.45-29.11L418.01,40.51C411.17,41.27,407.37,55.96,409.9,72.92z"/>
	<path class="st0" d="M900.27,1.53c-98.73,0-178.48,80-178.48,178.47c0,98.73,80,178.47,178.48,178.47
		c98.48,0,178.47-80,178.47-178.47C1078.99,81.52,998.99,1.53,900.27,1.53z M900.27,294.18c-63.04,0-114.17-51.14-114.17-114.18
		c0-63.04,51.14-114.17,114.17-114.17c63.03,0,114.17,51.14,114.17,114.17C1014.44,243.04,963.3,294.18,900.27,294.18z"/>
</g>
</svg>
