<?xml version="1.0" encoding="utf-8"?>
<!-- Generator: Adobe Illustrator 24.2.0, SVG Export Plug-In . SVG Version: 6.00 Build 0)  -->
<svg version="1.1" id="Layer_1" xmlns="http://www.w3.org/2000/svg" xmlns:xlink="http://www.w3.org/1999/xlink" x="0px" y="0px"
	 viewBox="0 0 1280.64 263.45" style="enable-background:new 0 0 1280.64 263.45;" xml:space="preserve">
<style type="text/css">
	.st0{fill-rule:evenodd;clip-rule:evenodd;fill:#FFFFFF;}
</style>
<g>
	<polygon class="st0" points="134.47,130.99 140.37,127.62 214.12,178.19 134.47,130.99 134.47,130.99 	"/>
	<polygon class="st0" points="130.23,128.3 124.75,125.14 130.86,28.62 130.23,128.3 130.23,128.3 	"/>
	<polygon class="st0" points="123.63,127.96 99.18,148.19 128.47,130.91 123.63,127.96 123.63,127.96 	"/>
	<path class="st0" d="M131.72,0C58.98,0,0,58.98,0,131.73c0,72.75,58.98,131.72,131.72,131.72c72.75,0,131.73-58.98,131.73-131.72
		C263.45,58.98,204.47,0,131.72,0L131.72,0L131.72,0L131.72,0z M131.74,256.42c-30.1,0-58.27-10.03-79.25-28.46
		c-20.42-17.93-36.28-46.43-40.2-76.72c9.28,57.6,59.23,101.6,119.45,101.6c66.82,0,120.99-54.17,120.99-121
		c0-27.72-10.36-54.87-26.04-75.27c15.89,12.26,29.62,47.18,29.62,75.27C256.31,200.65,200.54,256.42,131.74,256.42L131.74,256.42
		L131.74,256.42L131.74,256.42z M120.3,122.34l10.65-109.22l0,0c0.26,0,0.52-0.01,0.78-0.01c0.09,0,0.18,0,0.27,0l0,0l1.05,114.93
		l18.33-10.96L132.93,13.13l0,0c64.95,0.65,117.41,53.49,117.41,118.6c0,20.91-5.42,40.56-14.92,57.62l0,0l-82.32-68.88l-7.8,4.43
		l89.57,65.44l0,0c-0.23,0.39-0.45,0.79-0.68,1.18l0,0l-100.72-57.94v20.44l100.03,38.67l0,0c-20.73,34.54-58.55,57.66-101.77,57.66
		c-43.17,0-80.96-23.07-101.7-57.56l0,0l99.97-38.98v-20.44L29.15,191.31l0,0c-0.22-0.38-0.44-0.77-0.66-1.15l0,0l89.24-65.26
		l-7.8-4.42l-82.1,68.52l0,0c-9.38-16.98-14.72-36.49-14.72-57.26c0-64.59,51.63-117.12,115.88-118.58l0,0l-16.07,104.77
		L120.3,122.34L120.3,122.34L120.3,122.34z M131.72,7.08C62.92,7.08,7.15,62.86,7.15,131.65c0,27.94,10.14,54.37,25.6,77.2
		c5.24,9.81,10.92,15.88,18.49,23.9c-29.66-23.7-48.86-60.18-48.86-101.1C2.38,60.22,60.29,2.31,131.72,2.31
		c71.43,0,130.44,60.43,128.32,129.34C258.25,64.41,199.39,7.08,131.72,7.08L131.72,7.08L131.72,7.08L131.72,7.08z"/>
	<path class="st0" d="M710.34,140.45c0-23.1-10.21-41.83-32.64-41.83c-20.8,0-32.64,18.73-32.64,41.83
		c0,23.1,9.89,41.83,32.64,41.83c22.1,0,28.61-10.95,32-28.47l0,0l-7.62-0.04l0,0c-0.65,6.5-4.88,21.13-21.13,21.45
		c-18.52,0.37-19.83-23.4-19.5-34.78l0,0l0.32-6.5l0,0c0-7.15-0.65-28.28,16.58-28.28c13.65,0,15.6,17.55,15.6,28.28l0,0h-32.18
		l-0.32,6.5H710.34L710.34,140.45L710.34,140.45z"/>
	<path class="st0" d="M325.82,69.83l-0.33,5.2h4.88l0,0c3.58,0,8.13,0.33,8.13,4.88l0,0L336.87,168l0,0c0,3.25-1.63,6.83-8.13,6.83
		l0,0h-4.88l-0.33,5.2h32.83v-5.2h-5.53l0,0c-4.23,0-7.15-1.3-7.15-6.83l0,0l1.63-84.52l35.11,91.02H384l35.43-91.99l1.63,85.49l0,0
		c0,2.92-2.93,6.83-7.48,6.83l0,0h-6.83v5.2h41.28v-5.2h-4.88l0,0c-3.58,0-7.8-1.95-7.8-6.5l0,0l-1.63-87.12l0,0
		c0-2.93,3.25-6.18,6.5-6.18l0,0h6.18v-5.2h-29.58l-30.56,79.97l-30.56-79.97H325.82L325.82,69.83L325.82,69.83z"/>
	<path class="st0" d="M554.49,180.1v-4.23h-3.25l0,0c-2.92,0-8.13-0.98-8.13-6.83l0,0v-42.58l0,0c0-13.33,6.83-18.2,13.65-18.2
		c2.6,0,4.23,1.3,3.58,6.18c-0.65,4.88,3.58,8.13,7.15,7.8c3.58-0.32,8.13-0.97,7.48-10.08c-0.65-9.1-5.85-13.33-14.95-13.33
		c-7.15,0-13,4.55-14.63,6.83c-1.89,2.65-4.23,1.63-4.55-1.3c-0.32-2.92-1.62-5.85-4.87-4.88c-7.15,2.28-13.65,3.25-19.18,3.58l0,0
		v3.25l0,0c13.65-0.65,12.35,6.18,12.35,9.43l0,0v53.31l0,0c0,5.85-5.2,6.83-8.13,6.83l0,0h-4.55v4.23H554.49L554.49,180.1
		L554.49,180.1z"/>
	<path class="st0" d="M626.91,103.78c-4.79-3.5-10.82-5.5-18.15-5.5c-20.8,0-32.64,18.73-32.64,41.83c0,23.1,9.89,41.72,32.64,41.83
		c20.15,0.1,25.03-11.28,28.42-28.8l0,0l-7.62-0.04l0,0c-0.65,6.5-2.93,21.45-17.55,21.78c-18.52,0.41-19.83-23.41-19.5-34.78
		c0-7.15,0.98-35.76,16.58-35.76c13.33,0,21.45,9.43,21.45,20.16l0,0h4.22V97.21h-3.57L626.91,103.78L626.91,103.78L626.91,103.78z"
		/>
	<path class="st0" d="M1097.18,175.23c-18.53,0.37-19.83-23.4-19.5-34.78l0,0h48.89l0,0c0-23.1-10.21-41.83-32.64-41.83
		c-20.8,0-32.64,18.73-32.64,41.83c0,23.1,9.89,41.83,32.64,41.83c22.1,0,28.61-10.95,32-28.47l0,0l-7.62-0.04l0,0
		C1117.66,160.28,1113.43,174.9,1097.18,175.23L1097.18,175.23L1097.18,175.23L1097.18,175.23z M1094.58,105.66
		c13.65,0,15.6,17.55,15.6,28.28l0,0H1078l0,0C1078,126.79,1077.35,105.66,1094.58,105.66L1094.58,105.66L1094.58,105.66
		L1094.58,105.66z"/>
	<path class="st0" d="M829.93,175.23c-18.53,0.37-19.83-23.4-19.5-34.78l0,0h48.89l0,0c0-23.1-10.21-41.83-32.64-41.83
		c-20.8,0-32.64,18.73-32.64,41.83c0,23.1,9.88,41.83,32.64,41.83c22.1,0,28.6-10.95,32-28.47l0,0l-7.62-0.04l0,0
		C850.41,160.28,846.18,174.9,829.93,175.23L829.93,175.23L829.93,175.23L829.93,175.23z M827.33,105.66
		c13.65,0,15.6,17.55,15.6,28.28l0,0h-32.18l0,0C810.75,126.79,810.1,105.66,827.33,105.66L827.33,105.66L827.33,105.66
		L827.33,105.66z"/>
	<path class="st0" d="M484.93,175.23c-18.52,0.37-19.83-23.4-19.5-34.78l0,0h48.89l0,0c0-23.1-10.21-41.83-32.64-41.83
		c-20.8,0-32.64,18.73-32.64,41.83c0,23.1,9.89,41.83,32.64,41.83c22.1,0,28.61-10.95,32-28.47l0,0l-7.62-0.04l0,0
		C505.41,160.28,501.18,174.9,484.93,175.23L484.93,175.23L484.93,175.23L484.93,175.23z M482.33,105.66
		c13.65,0,15.6,17.55,15.6,28.28l0,0h-32.18l0,0C465.75,126.79,465.1,105.66,482.33,105.66L482.33,105.66L482.33,105.66
		L482.33,105.66z"/>
	<path class="st0" d="M781.14,163.12V72.43l0,0c0-3.74-1.95-6.83-5.2-5.85c-7.15,2.28-13.65,3.25-19.18,3.58l0,0v3.25l0,0
		c9.43-0.65,10.4,2.28,10.4,5.53l0,0v27.96l0,0c-4.23-3.9-9.1-7.8-17.88-7.8c-11.05,0-31.53,8.78-31.53,39.66
		c0,40.63,23.73,43.23,30.88,43.23c7.15,0,16.58-5.85,18.53-8.94c0.16-0.65,1.14-1.46,1.46,0c0.33,2.93,2.44,7.31,5.69,6.34
		c7.15-2.27,13.65-3.25,19.18-3.57l0,0v-3.25l0,0C779.84,173.2,781.14,166.37,781.14,163.12L781.14,163.12L781.14,163.12
		L781.14,163.12z M767.16,153.37c-0.33,17.88-9.75,23.4-17.55,23.4c-17.55-0.32-16.25-26.98-16.25-38.36
		c0-11.38,0.65-33.81,16.58-31.86c15.93,1.95,17.23,18.85,17.23,28.93l0,0V153.37L767.16,153.37L767.16,153.37z"/>
	<polygon class="st0" points="971.96,133.57 971.96,126.09 929.05,126.09 929.05,133.57 971.96,133.57 971.96,133.57 	"/>
	<path class="st0" d="M869.94,152.46v27.63h3.58l3.25-7.15l0,0c3.25,2.93,10.08,7.8,18.85,7.8c8.78,0,21.13-4.88,26-13.98
		c4.88-9.1,2.6-24.05-8.45-28.61c-9.68-3.99-18.17-8.76-24.71-12.03c-5.2-2.6-6.46-7.79-5.85-11.05c0.98-5.2,5.53-10.73,15.93-11.05
		c10.4-0.33,15.6,8.45,16.9,18.53l0,0h3.58V96.55h-3.25l-3.58,6.18l0,0c-6.83-4.55-9.75-5.2-15.93-5.2
		c-6.18,0-16.58,3.25-22.43,12.35c-5.85,9.1-4.23,23.4,9.75,29.26c13.98,5.85,20.48,9.43,24.38,11.38c3.9,1.95,6.18,9.75,3.58,14.3
		c-2.6,4.55-7.48,9.75-15.28,9.75c-7.8,0-20.15-5.53-23.08-22.11l0,0H869.94L869.94,152.46L869.94,152.46z"/>
	<path class="st0" d="M1033.06,120.54c7.8-1.95,15.6-15.93,15.6-25.35c0-9.43-3.58-25.36-26.33-25.36l0,0h-48.76v4.23l0,0
		c4.88,0,13.33,0.98,13.33,9.1l0,0v80.29l0,0c0,4.55-0.32,12.03-13.33,12.03l0,0v4.55h39.98l0,0c12.03,0,39.66-0.97,40.31-32.83
		C1053.87,136.47,1048.66,123.79,1033.06,120.54L1033.06,120.54L1033.06,120.54L1033.06,120.54z M1000.88,75.03h16.25l0,0
		c12.03,0,16.9,8.77,16.9,20.15c0,13.98-4.23,24.7-16.9,24.7l0,0h-16.25V75.03L1000.88,75.03L1000.88,75.03z M1017.46,174.83h-16.58
		v-49.74h18.53l0,0c10.73,0,20.15,7.48,20.15,23.73C1039.56,165.07,1029.81,174.83,1017.46,174.83L1017.46,174.83L1017.46,174.83
		L1017.46,174.83z"/>
	<path class="st0" d="M1186.63,120.94v48.11l0,0c0,5.85-5.2,6.83-8.13,6.83l0,0h-1.95v4.23h35.43v-4.23h-3.25l0,0
		c-2.93,0-8.13-0.98-8.13-6.83l0,0v-47.79l0,0c-0.33-21.78-19.83-22.43-26.66-22.43c-7.15,0-14.95,4.55-16.58,6.83
		c-1.89,2.65-4.23,1.63-4.55-1.3c-0.33-2.92-1.63-5.85-4.88-4.88c-7.15,2.28-13.65,3.25-19.18,3.58l0,0v3.25l0,0
		c13.65-0.65,12.35,6.18,12.35,9.43l0,0v53.31l0,0c0,5.85-5.2,6.83-8.13,6.83l0,0h-4.55v4.23h38.03v-4.23h-3.25l0,0
		c-2.92,0-8.13-0.98-8.13-6.83l0,0v-42.58l0,0c0-7.15,2.6-18.53,15.93-19.51C1184.35,105.98,1186.63,114.76,1186.63,120.94
		L1186.63,120.94L1186.63,120.94L1186.63,120.94z"/>
	<path class="st0" d="M1219.52,122.57l5.85-22.1h55.26l-47.46,75.09h25.36l0,0c5.85,0,10.4-2.28,16.58-17.23l0,0h2.6l-5.2,21.78
		h-56.56l47.14-75.09h-21.13l0,0c-5.2,0-11.05,0-19.18,17.55l0,0H1219.52L1219.52,122.57L1219.52,122.57z"/>
</g>
</svg>
