<?xml version="1.0" encoding="utf-8"?>
<!-- Generator: Adobe Illustrator 24.2.0, SVG Export Plug-In . SVG Version: 6.00 Build 0)  -->
<svg version="1.1" id="Layer_1" xmlns="http://www.w3.org/2000/svg" xmlns:xlink="http://www.w3.org/1999/xlink" x="0px" y="0px"
	 viewBox="0 0 4434.14 1069.53" style="enable-background:new 0 0 4434.14 1069.53;" xml:space="preserve">
<style type="text/css">
	.st0{fill:#FEFEFE;}
	.st1{fill:#242122;}
	.st2{fill:#D25348;}
	.st3{fill:#5A5858;}
	.st4{fill:#D9D8DA;}
	.st5{fill:#D5D7D9;}
	.st6{fill:#646364;}
	.st7{fill:#514D4E;}
	.st8{fill:#3E3C3D;}
	.st9{fill:#DC847A;}
	.st10{fill:#939091;}
	.st11{fill:#787777;}
	.st12{fill:#E8ACAA;}
	.st13{fill:#B5B3B4;}
	.st14{fill:#C4C4C6;}
	.st15{fill:#BFBEBF;}
	.st16{fill:#D4D3D4;}
	.st17{fill:#CBCACB;}
	.st18{fill:#FBFBFB;}
	.st19{fill:#E1E0E1;}
	.st20{fill:#E2E3E4;}
	.st21{fill:#DEDDDE;}
	.st22{fill:#E9E8EA;}
	.st23{fill:#C9C8C8;}
	.st24{fill:#CFCECF;}
	.st25{fill:#B9B8B9;}
	.st26{fill:#AEABAD;}
	.st27{fill:#A3A1A2;}
	.st28{fill:#9D9A9A;}
	.st29{fill:#858283;}
	.st30{fill:#1B394C;}
	.st31{fill:#4FA8B6;}
	.st32{fill:#1E3251;}
	.st33{fill:#F8D15F;}
	.st34{fill:#1D1D1B;}
	.st35{fill:#979AA9;}
	.st36{fill:#27597A;}
	.st37{fill:#ABCED3;}
	.st38{fill:#DEE3E6;}
</style>
<g>
	<g>
		<path class="st30" d="M4254.13,477.9c-71.82-65.59-152.78-121.11-238.04-168.19c-42.69-23.49-86.41-45.08-130.95-64.8
			c-44.56-19.65-89.84-37.63-135.64-54.08c-45.79-16.47-92.16-31.22-138.82-44.86c-46.67-13.57-93.66-26.02-140.96-37.03
			c-47.27-11.1-94.77-21.16-142.42-30.25c-47.65-9.15-95.51-16.97-143.43-24.23c-47.93-7.15-95.95-13.64-144.06-19.17
			c-48.11-5.48-96.29-10.28-144.5-14.4c-96.41-8.43-193.01-13.7-289.59-17.06c-96.59-3.51-193.2-4.31-289.73-3.58
			c-48.27,0.42-96.53,1.09-144.75,2.44c-48.23,1.38-96.43,3.15-144.61,5.27c-48.18,2.13-96.33,4.62-144.46,7.43
			c-48.12,2.89-96.2,6.32-144.25,9.95c-192.23,14.43-383.86,34.73-574.8,59.52c-190.93,24.94-381.17,54.46-570.53,88.64
			c-47.34,8.56-94.63,17.36-141.88,26.4c-47.24,9.1-94.39,18.64-141.51,28.34c-47.11,9.75-94.2,19.61-141.16,30.16
			C121,268.9,74.29,279.56,27.08,291.04L0,297.63l0.27,26.41c0.24,23.55,4.69,45.81,10.94,66.67c6.32,20.88,14.67,40.41,24,59.07
			c18.81,37.23,41.54,71,66.15,102.76c24.63,31.75,51.06,61.58,78.62,90.11c13.77,14.28,27.95,28.11,42.36,41.68
			c7.22,6.78,14.5,13.48,21.88,20.1c1.69,1.52,3.37,3.02,5.06,4.51c-22.93,18.7-44.44,39.06-64.31,60.82
			c-12.55,14.03-24.69,28.4-35.73,43.59c-5.69,7.46-10.82,15.32-16.15,23.01c-5.01,7.92-10.18,15.71-14.82,23.83
			c-19.17,32.09-34.56,66.23-46.51,101.3c-11.68,35.12-20.36,71.35-22.72,108.04c2.97-18.1,8.01-35.72,13.54-53.08
			c5.67-17.33,12.31-34.28,19.71-50.84c14.84-33.1,32.86-64.61,53.81-93.84c5.11-7.39,10.72-14.43,16.13-21.56
			c5.74-6.91,11.25-13.96,17.28-20.59c11.67-13.57,24.24-26.31,37.14-38.61c26.06-24.38,54.32-46.17,84.12-65.43l19.87-12.84
			l-18.05-17.55c-6.56-6.38-13.42-13.34-20.02-20.18c-6.64-6.89-13.2-13.88-19.69-20.92c-12.99-14.09-25.61-28.52-37.98-43.08
			c-24.71-29.17-48.08-59.35-69.21-90.61c-20.99-31.28-40.22-63.55-54.56-96.83c-7.13-16.61-13.12-33.43-17.1-50.11
			c-1.68-7.02-2.98-14.01-3.91-20.92c37.32-6.93,74.99-13.56,112.52-20c47.12-7.98,94.23-16.04,141.42-23.68
			c47.18-7.7,94.42-15.02,141.66-22.31c47.23-7.35,94.5-14.44,141.8-21.31c189.2-27.49,378.73-52.25,568.55-73.61
			c189.81-21.44,379.92-39.38,570.2-53.33c47.57-3.46,95.17-6.49,142.76-9.41c47.59-2.97,95.19-5.62,142.79-7.91
			c47.61-2.28,95.22-4.21,142.84-5.76c47.61-1.56,95.22-3.03,142.84-3.93c95.22-1.87,190.42-1.93,285.55-0.65
			c95.13,1.43,190.16,4.99,285.03,10.37c47.43,2.75,94.8,6.16,142.1,10.24c47.3,4.02,94.55,8.55,141.68,13.96
			c47.13,5.38,94.14,11.65,141.02,18.58c46.89,6.89,93.62,14.73,140.14,23.58c46.51,8.9,92.83,18.66,138.86,29.56
			c46.04,10.9,91.7,23.23,137.03,36.62c45.33,13.39,90.19,28.29,134.43,44.82c44.26,16.48,87.96,34.47,130.69,54.55
			c85.48,40.02,167.63,87.76,242.57,145.77c75.05,57.78,142.37,126.4,197.53,205.08C4388.07,619.41,4325.86,543.41,4254.13,477.9z"
			/>
	</g>
	<g>
		<path class="st31" d="M809.14,894.05c25.14,0,47.38-5.8,66.72-17.4c21.27-12.24,31.91-31.26,31.91-57.05
			c0-12.89-3.23-23.52-9.67-31.91c-7.1-9.67-16.6-17.56-28.52-23.69c-11.94-6.12-26.11-10.79-42.55-14.02
			c-16.44-3.22-33.36-6.12-50.76-8.7c-27.07-3.87-53.66-10.3-79.77-19.34c-26.11-9.02-49.31-21.91-69.62-38.68
			c-20.31-16.76-36.59-38.03-48.83-63.82c-12.25-24.49-18.37-54.46-18.37-89.92c0-1.93,0-3.87,0-5.8
			c1.93-32.23,10.3-60.75,25.14-85.57c14.82-24.81,33.68-45.45,56.57-61.88c22.87-16.44,48.83-28.84,77.84-37.23
			c29.01-8.37,58.98-12.57,89.92-12.57c44.48,0,86.86,9.35,127.15,28.04c40.28,18.7,74.94,49.65,103.94,92.82l-117,78.32
			c-14.84-22.56-31.91-38.99-51.25-49.31c-19.34-10.3-40.29-15.47-62.85-15.47c-13.54,0-26.44,1.3-38.68,3.87
			c-12.25,2.58-23.21,6.62-32.88,12.09c-9.67,5.48-17.4,12.57-23.21,21.27c-5.8,8.7-9.03,18.85-9.67,30.46v0.97
			c0,14.19,3.39,25.47,10.15,33.84c6.77,8.39,15.62,15.32,26.59,20.79c10.95,5.48,23.52,9.67,37.71,12.57
			c14.17,2.9,28.67,5.97,43.51,9.19c29.64,5.8,58.5,13.22,86.54,22.24c28.04,9.03,52.85,22.09,74.45,39.16
			c21.59,17.09,38.51,38.84,50.76,65.27c10.95,23.21,16.44,51.58,16.44,85.09c0,5.17,0,10.32,0,15.47
			c-3.23,32.24-12.57,60.6-28.04,85.09c-15.47,24.5-35.29,45.13-59.47,61.88c-24.17,16.77-51.25,29.49-81.22,38.19
			c-29.97,8.7-60.43,13.05-91.37,13.05c-44.48,0-87.99-10.79-130.54-32.39c-42.55-21.59-78.32-54.3-107.33-98.14l107.33-82.19
			c15.47,24.5,36.74,43.03,63.82,55.6c27.08,12.57,53.82,19.19,80.26,19.82C806.24,894.05,807.84,894.05,809.14,894.05z"/>
		<path class="st31" d="M1336.11,1031.35c-27.72,0-54.31-3.07-79.77-9.19c-25.47-6.12-47.86-16.27-67.2-30.46
			c-19.34-14.17-34.81-33.19-46.41-57.05c-11.6-23.84-17.4-53.5-17.4-88.96V520.81h134.4v317.15c0,29.66,8.37,50.76,25.14,63.33
			c16.76,12.57,36.41,18.85,58.98,18.85c16.76,0,32.88-2.9,48.35-8.7V520.81h133.44v473.79c-27.08,9.67-56.73,18.22-88.96,25.62
			C1404.43,1027.63,1370.92,1031.35,1336.11,1031.35z"/>
		<path class="st31" d="M1819.56,511.14c18.69,0,42.21,3.23,70.59,9.67v108.29c-12.25-3.22-24.82-4.83-37.71-4.83
			c-2.58,0-4.84,0-6.77,0c-15.47,0.65-29.82,3.55-43.03,8.7c-13.22,5.17-24.02,12.57-32.39,22.24
			c-8.39,9.67-12.57,21.61-12.57,35.78v330.69h-134.4V689.06c0-29.64,5.95-55.75,17.89-78.32c11.92-22.56,27.23-41.09,45.93-55.6
			c18.69-14.5,39.79-25.46,63.33-32.88C1773.95,514.86,1796.99,511.14,1819.56,511.14z"/>
		<path class="st31" d="M2158.95,457.96c-17.41,0-31.91,4.2-43.51,12.57c-16.12,12.9-24.17,29.34-24.17,49.31v24.17h88.96v122.8
			h-88.96v354.86h-134.4V512.11c0-29.64,5.47-56.23,16.44-79.77c10.95-23.52,26.42-43.03,46.41-58.5
			c19.97-15.47,44.15-26.42,72.52-32.88c18.69-5.15,38.99-7.73,60.92-7.73c10.95,0,21.91,0.65,32.88,1.93v125.7
			C2176.35,458.93,2167.32,457.96,2158.95,457.96z"/>
		<path class="st31" d="M2430.64,337.1h142.14v541.48h295.88v143.1h-438.02V337.1z"/>
		<path class="st31" d="M3000.16,318.72c23.21,0,42.86,8.07,58.98,24.17c16.1,16.12,24.17,35.78,24.17,58.98
			c0,23.86-8.07,43.84-24.17,59.95c-16.12,16.12-35.78,24.17-58.98,24.17c-23.2,0-42.71-8.05-58.5-24.17
			c-15.8-16.11-23.69-36.09-23.69-59.95c0-23.21,7.89-42.86,23.69-58.98C2957.45,326.79,2976.95,318.72,3000.16,318.72z
			 M3069.78,1021.68h-137.3v-499.9h137.3V1021.68z"/>
		<path class="st31" d="M3354.05,511.14c28.36,0,55.6,3.38,81.71,10.15c26.11,6.77,49.31,17.4,69.62,31.91
			c20.31,14.5,36.58,33.36,48.83,56.56c12.24,23.21,18.37,51.25,18.37,84.12v327.79h-133.44V698.73c0-23.21-7.9-40.13-23.69-50.76
			c-15.8-10.64-33.36-15.95-52.7-15.95c-20.64,0-39.01,4.52-55.12,13.54v376.14h-134.4V554.66c27.71-13.54,57.05-24.17,87.99-31.91
			C3292.16,515.01,3323.1,511.14,3354.05,511.14z"/>
		<path class="st31" d="M3860.72,1031.35c-25.14,0-49.8-3.72-73.97-11.12c-24.17-7.4-45.78-18.52-64.78-33.36
			c-19.02-14.82-34.33-33.36-45.93-55.6c-11.6-22.24-17.4-48.18-17.4-77.84V688.09c0-30.29,5.95-56.56,17.89-78.8
			c11.92-22.24,27.39-40.61,46.41-55.12c19.01-14.5,40.76-25.29,65.27-32.39c24.49-7.09,49.31-10.64,74.45-10.64
			c24.49,0,48.35,3.23,71.55,9.67c23.21,6.45,43.83,16.6,61.88,30.46c18.04,13.87,32.55,31.59,43.51,53.18
			c10.96,21.6,16.44,47.55,16.44,77.84v146.97H3794v22.24c0,19.34,7.73,34.01,23.21,43.99c15.47,10,32.88,14.99,52.21,14.99
			c15.47,0,30.46-3.05,44.96-9.19c14.5-6.12,25.62-15.62,33.36-28.52l87.99,63.82c-9.67,18.05-21.44,33.04-35.29,44.96
			c-13.87,11.94-28.69,21.6-44.48,29.01c-15.81,7.42-31.91,12.72-48.35,15.95C3891.18,1029.73,3875.54,1031.35,3860.72,1031.35z
			 M3929.37,684.22c0-17.4-6.77-30.46-20.31-39.16c-13.54-8.7-28.69-13.05-45.44-13.05c-17.41,0-33.36,4.35-47.86,13.05
			c-14.5,8.7-21.76,22.09-21.76,40.13v44.48h135.37V684.22z"/>
	</g>
</g>
</svg>
